<svg width="24" height="24" viewBox="0 0 24 24" fill="none" xmlns="http://www.w3.org/2000/svg">
<g clip-path="url(#clip0_4045_16772)">
<path fill-rule="evenodd" clip-rule="evenodd" d="M13.4408 14.9939C14.2216 14.5352 14.7914 13.7802 15.025 12.8948C15.2586 12.0094 15.137 11.066 14.6868 10.2717C14.2347 9.47814 13.4914 8.89931 12.6199 8.66218C11.7484 8.42505 10.8199 8.54899 10.0383 9.00681C9.65036 9.23253 9.31042 9.53428 9.03814 9.89456C8.76587 10.2548 8.56669 10.6665 8.45214 11.1056C8.33527 11.544 8.30515 12.0016 8.36353 12.452C8.42191 12.9023 8.56763 13.3364 8.79224 13.7291C9.24475 14.5221 9.98808 15.1006 10.8594 15.3376C11.7307 15.5747 12.6589 15.4511 13.4408 14.9939ZM9.21851 7.56447C11.6259 6.15313 14.7165 6.99404 16.1059 9.44005C16.7726 10.6167 16.9528 12.0142 16.6068 13.3257C16.2608 14.6372 15.417 15.7557 14.2605 16.4355C13.1024 17.1141 11.7267 17.2979 10.4354 16.9466C9.14409 16.5952 8.04274 15.7374 7.37313 14.5615C7.04033 13.9797 6.82447 13.3366 6.73807 12.6694C6.65168 12.0022 6.69647 11.3242 6.86984 10.6747C7.03946 10.0241 7.33438 9.41426 7.73754 8.88038C8.1407 8.3465 8.64407 7.89922 9.21851 7.56447ZM5.8953 15.428C7.10014 17.5485 6.63498 20.1875 4.92305 21.7724C4.46888 21.4462 4.03821 21.0875 3.63433 20.699C4.27518 20.1848 4.71274 19.4535 4.86715 18.6387C5.02156 17.8238 4.88253 16.9797 4.47543 16.2604C4.25284 15.8664 3.95559 15.5212 3.60088 15.2447C3.24616 14.9683 2.84102 14.7661 2.40891 14.6498C1.70105 14.4553 0.950097 14.5008 0.269944 14.7793C0.141191 14.2302 0.0509821 13.6726 0 13.1106C0.918324 12.8109 1.90226 12.7869 2.83365 13.0416C3.47389 13.2141 4.07414 13.5138 4.59967 13.9236C5.12519 14.3333 5.56556 14.8442 5.8953 15.428ZM17.0812 4.68599C17.3294 3.7392 17.8416 2.88549 18.556 2.22758C19.01 2.55367 19.4406 2.91212 19.8447 3.30023C19.2672 3.75925 18.8526 4.39699 18.6635 5.11691C18.5467 5.55521 18.5167 6.0127 18.575 6.46289C18.6334 6.91309 18.7791 7.34704 19.0036 7.73962C19.2261 8.13368 19.5233 8.47895 19.878 8.75541C20.2328 9.03186 20.638 9.23401 21.0701 9.35014C21.7869 9.54623 22.5304 9.49585 23.2083 9.21916C23.338 9.77099 23.4279 10.3267 23.4783 10.8832C22.9876 11.0466 22.4749 11.1316 21.9585 11.135C21.5153 11.1348 21.0741 11.0754 20.6461 10.9583C20.0059 10.7861 19.4056 10.4865 18.8801 10.0769C18.3546 9.66728 17.9142 9.15578 17.5845 8.57201C17.2517 7.99039 17.0358 7.34738 16.9494 6.6803C16.863 6.01322 16.9078 5.33534 17.0812 4.68599ZM11.7395 18.8552C14.1492 18.8552 16.1669 20.5827 16.6626 22.8815C16.1516 23.121 15.6301 23.3186 15.1031 23.4782C14.9846 22.6572 14.5798 21.9067 13.9623 21.3637C13.3449 20.8206 12.556 20.5212 11.7395 20.5199C10.9235 20.5213 10.1351 20.8205 9.51783 21.363C8.9006 21.9056 8.49563 22.6554 8.37665 23.4759C7.84372 23.315 7.32262 23.1161 6.81723 22.8807C7.31289 20.5819 9.32984 18.8552 11.7395 18.8552ZM11.7395 5.14481C9.32984 5.14481 7.31213 3.41648 6.81647 1.1185C7.32738 0.879019 7.84896 0.681386 8.37589 0.521729C8.49455 1.34268 8.8995 2.09296 9.51691 2.63583C10.1343 3.17871 10.9231 3.47804 11.7395 3.47926C13.4476 3.47926 14.8629 2.1927 15.1024 0.524054C15.6357 0.684461 16.1571 0.883376 16.6626 1.11928C16.1669 3.41726 14.1492 5.14481 11.7395 5.14481ZM20.6461 13.0424C21.5764 12.7874 22.5593 12.8108 23.4767 13.1098C23.4248 13.6721 23.334 14.2299 23.2053 14.7793C22.5261 14.5024 21.7769 14.457 21.0701 14.6498C20.638 14.766 20.2328 14.9682 19.8781 15.2447C19.5234 15.5211 19.2261 15.8663 19.0036 16.2604C18.7792 16.653 18.6335 17.0869 18.5752 17.5371C18.5168 17.9873 18.5468 18.4448 18.6635 18.8831C18.8521 19.6026 19.2663 20.24 19.8432 20.699C19.4436 21.0826 19.0143 21.4422 18.5545 21.7716C17.8404 21.1142 17.3285 20.261 17.0804 19.3148C16.7319 17.9933 16.9104 16.613 17.5837 15.428C18.2571 14.2429 19.3452 13.3958 20.6454 13.0416L20.6461 13.0424ZM2.83289 10.9583C2.40467 11.0754 1.9632 11.1348 1.51977 11.135C1.0042 11.1317 0.49228 11.047 0.00228766 10.8839C0.0541413 10.3236 0.144885 9.76789 0.273757 9.22149C0.950142 9.49585 1.69211 9.54545 2.40891 9.35014C2.84105 9.23397 3.24623 9.03181 3.60095 8.75535C3.95568 8.4789 4.25291 8.13366 4.47543 7.73962C4.69996 7.34719 4.84563 6.91337 4.90401 6.4633C4.96239 6.01322 4.93232 5.55585 4.81553 5.11768C4.62673 4.39805 4.21233 3.76057 3.63509 3.30178C4.03917 2.91347 4.46982 2.55476 4.92381 2.22835C5.6379 2.88607 6.14978 3.73952 6.39782 4.68599C6.57097 5.33537 6.61564 6.0132 6.52925 6.68025C6.44286 7.34729 6.22712 7.99029 5.89454 8.57201C5.56476 9.15573 5.12436 9.66718 4.59884 10.0768C4.07331 10.4864 3.47308 10.786 2.83289 10.9583Z" fill="#141417"/>
</g>
<defs>
<clipPath id="clip0_4045_16772">
<path d="M0 0H24V24H0V0Z" fill="white"/>
</clipPath>
</defs>
</svg>
